<?xml version="1.0" encoding="utf-8"?>
<!-- Generator: Adobe Illustrator 23.0.2, SVG Export Plug-In . SVG Version: 6.00 Build 0)  -->
<svg version="1.1" id="Layer_1" xmlns="http://www.w3.org/2000/svg" xmlns:xlink="http://www.w3.org/1999/xlink" x="0px" y="0px"
	 viewBox="0 0 180.58 56" style="enable-background:new 0 0 180.58 56;" xml:space="preserve">
<style type="text/css">
	.st0{fill:#12A85F;}
	.st1{fill:#47CC8C;}
	.st2{fill:#333333;}
</style>
<g>
	<polygon class="st0" points="23.64,0 45.03,12.68 0,39.18 0,14.11 	"/>
	<polygon class="st1" points="2.5,43.34 23.41,56 47.76,42.5 47.76,17.08 	"/>
</g>
<g>
	<path class="st2" d="M64.51,32.03v8.03h-6.67V16.07h9.96c2.89,0,5.1,0.73,6.62,2.19c1.52,1.46,2.29,3.41,2.29,5.84
		c0,1.51-0.34,2.87-1.02,4.07S74,30.31,72.65,31c-1.34,0.69-2.96,1.03-4.86,1.03H64.51z M69.96,24.1c0-1.76-0.97-2.64-2.91-2.64
		h-2.54v5.32h2.54C68.99,26.78,69.96,25.89,69.96,24.1z"/>
	<path class="st2" d="M97.05,17.28c1.86,1.05,3.33,2.51,4.41,4.39c1.07,1.88,1.61,3.99,1.61,6.33c0,2.35-0.54,4.46-1.63,6.34
		s-2.56,3.34-4.42,4.39c-1.86,1.05-3.91,1.58-6.15,1.58c-2.23,0-4.29-0.53-6.17-1.58c-1.88-1.05-3.35-2.51-4.44-4.39
		c-1.08-1.88-1.63-3.99-1.63-6.34c0-2.35,0.54-4.46,1.63-6.33c1.08-1.88,2.56-3.34,4.44-4.39c1.87-1.05,3.93-1.58,6.17-1.58
		C93.12,15.7,95.18,16.23,97.05,17.28z M86.87,23.51c-0.97,1.1-1.46,2.59-1.46,4.49c0,1.85,0.49,3.33,1.46,4.44
		c0.97,1.11,2.3,1.66,4,1.66c1.67,0,2.99-0.55,3.96-1.66s1.46-2.59,1.46-4.44c0-1.9-0.48-3.39-1.44-4.49
		c-0.96-1.09-2.29-1.64-3.98-1.64C89.17,21.87,87.84,22.42,86.87,23.51z"/>
	<path class="st2" d="M124.95,18.11c1.96,1.49,3.15,3.5,3.56,6.03h-7.01c-0.36-0.65-0.89-1.17-1.59-1.56
		c-0.7-0.38-1.53-0.58-2.47-0.58c-1.63,0-2.92,0.55-3.88,1.64c-0.96,1.1-1.44,2.56-1.44,4.39c0,2.08,0.51,3.65,1.54,4.73
		c1.03,1.07,2.54,1.61,4.52,1.61c1.13,0,2.12-0.27,2.98-0.81s1.54-1.34,2.03-2.41h-6.64v-4.74h12.16v6.61
		c-0.86,1.99-2.23,3.69-4.12,5.1c-1.89,1.41-4.26,2.12-7.13,2.12c-2.44,0-4.57-0.51-6.4-1.54c-1.83-1.03-3.24-2.47-4.22-4.32
		c-0.98-1.85-1.47-3.96-1.47-6.34c0-2.37,0.49-4.48,1.47-6.32s2.38-3.28,4.18-4.3c1.81-1.03,3.93-1.54,6.37-1.54
		C120.47,15.87,122.98,16.62,124.95,18.11z"/>
	<path class="st2" d="M149.43,17.28c1.86,1.05,3.33,2.51,4.41,4.39c1.07,1.88,1.61,3.99,1.61,6.33c0,2.35-0.54,4.46-1.63,6.34
		s-2.56,3.34-4.42,4.39c-1.86,1.05-3.91,1.58-6.15,1.58c-2.24,0-4.29-0.53-6.17-1.58c-1.88-1.05-3.35-2.51-4.44-4.39
		s-1.63-3.99-1.63-6.34c0-2.35,0.54-4.46,1.63-6.33s2.56-3.34,4.44-4.39c1.88-1.05,3.93-1.58,6.17-1.58
		C145.5,15.7,147.57,16.23,149.43,17.28z M139.25,23.51c-0.97,1.1-1.46,2.59-1.46,4.49c0,1.85,0.49,3.33,1.46,4.44
		c0.97,1.11,2.3,1.66,4,1.66c1.67,0,2.99-0.55,3.96-1.66c0.97-1.11,1.46-2.59,1.46-4.44c0-1.9-0.48-3.39-1.44-4.49
		c-0.96-1.09-2.29-1.64-3.98-1.64C141.55,21.87,140.22,22.42,139.25,23.51z"/>
	<path class="st2" d="M180.58,40.06h-6.67l-8.81-13.38v13.38h-6.67V16.11h6.67l8.81,13.55V16.11h6.67V40.06z"/>
</g>
</svg>
